<svg width="92" height="77" viewBox="0 0 92 77" xmlns="http://www.w3.org/2000/svg"><title>noun_148552_cc (1)</title><g fill="#000" fill-rule="evenodd"><path d="M91.177 66.61V1.173a.986.986 0 0 0-.985-.985H24.715a.986.986 0 0 0-.985.985v32.054L1.44 42.194c-.003 0-.004.004-.007.005a.97.97 0 0 0-.243.16c-.024.02-.056.03-.078.052-.005.004-.006.01-.01.015a.986.986 0 0 0-.2.297c-.008.016-.006.035-.012.052a.977.977 0 0 0-.066.325V75.83c0 .06.023.115.034.173.012.066.01.132.036.196 0 .003.004.005.005.008.005.015.016.027.023.04a.97.97 0 0 0 .168.25c.024.025.05.044.075.066a.966.966 0 0 0 .206.14c.033.015.062.03.096.044.11.04.223.07.342.07h77.47a.98.98 0 0 0 .36-.073c.045-.017.08-.047.123-.07.052-.03.108-.05.155-.09l10.913-9.217c.01-.008.013-.022.023-.03a.977.977 0 0 0 .176-.23c.02-.033.048-.058.063-.093a.974.974 0 0 0 .087-.4zM2.794 44.094h16.26v23.733L2.795 74.37V44.092zm20.936 0v21.852l-2.704 1.088v-22.94h2.704zm32.737 0v21.533H41.16V44.093h15.307zm21.826 0v21.533H61.295V44.093h16.998zm-18.97 21.533h-.884V44.093h.884v21.533zm-20.134 0H25.7V44.093h13.49v21.533zM19.054 69.95v4.893H6.897l12.158-4.892zm1.97-.793l3.882-1.56H39.19v7.246H21.025v-5.686zm20.136-1.56h18.163v7.246H41.162v-7.247zm20.135 0h16.998v7.246H61.295v-7.247zm18.97 0h7.233l-7.234 6.11v-6.11zm0-1.97V43.564l8.94-7.55v29.61h-8.94zm8.94-63.47v31.278L78.92 42.123H58.44V2.157h30.766zm-32.738 0v39.966H25.7V2.156h30.767zM23.73 42.123H6.897L23.73 35.35v6.773z"/><path d="M53.36 38.73c.543 0 .985-.44.985-.984v-5.164a.986.986 0 0 0-1.972 0v5.164c0 .544.442.985.986.985zM61.77 38.73c.546 0 .987-.44.987-.984v-5.164a.986.986 0 0 0-1.97 0v5.164c0 .544.44.985.984.985z"/></g></svg>