<svg width="60" height="78" viewBox="0 0 60 78" xmlns="http://www.w3.org/2000/svg"><title>1457531052_Appliances-15</title><g fill="#000" fill-rule="evenodd"><path d="M53.73 3a4.5 4.5 0 0 0-4.23-3h-12a4.5 4.5 0 0 0-4.23 3H20.73a4.5 4.5 0 0 0-4.23-3h-6a4.5 4.5 0 0 0-4.23 3H0v75h60V3h-6.27zM57 6v12H3V6h54zM3 75V21h54v54H3z"/><ellipse cx="9" cy="12" rx="3" ry="3"/><ellipse cx="33" cy="12" rx="3" ry="3"/><ellipse cx="24" cy="12" rx="3" ry="3"/><ellipse cx="42" cy="12" rx="3" ry="3"/><ellipse cx="51" cy="12" rx="3" ry="3"/><path d="M18 24h24v3H18zM43.5 30h-27A7.5 7.5 0 0 0 9 37.5v18a7.5 7.5 0 0 0 7.5 7.5h27a7.5 7.5 0 0 0 7.5-7.5v-18a7.5 7.5 0 0 0-7.5-7.5zM48 55.5a4.5 4.5 0 0 1-4.5 4.5h-27a4.5 4.5 0 0 1-4.5-4.5v-18a4.5 4.5 0 0 1 4.5-4.5h27a4.5 4.5 0 0 1 4.5 4.5v18z"/></g></svg>