<svg width="86" height="57" viewBox="0 0 86 57" xmlns="http://www.w3.org/2000/svg"><title>1457531063_Appliances-18</title><g fill="#000" fill-rule="evenodd"><path d="M0 0v57h86V0H0zm2.688 54.286V2.714H64.5v51.572H2.687zm80.624 0H67.19V2.714H83.31v51.572z"/><path d="M75.25 16.286c2.97 0 5.375-2.43 5.375-5.43 0-2.997-2.406-5.427-5.375-5.427-2.97 0-5.375 2.43-5.375 5.427 0 2.998 2.406 5.43 5.375 5.43zm0-8.143c1.484 0 2.688 1.215 2.688 2.714 0 1.5-1.204 2.714-2.688 2.714-1.484 0-2.688-1.214-2.688-2.713 0-1.5 1.204-2.714 2.688-2.714z"/><ellipse cx="75.25" cy="29.857" rx="2.688" ry="2.714"/><ellipse cx="75.25" cy="40.714" rx="2.688" ry="2.714"/><path d="M52.406 8.143H14.78c-3.71 0-6.717 3.038-6.717 6.786v27.14c0 1.8.707 3.527 1.967 4.8a6.685 6.685 0 0 0 4.75 1.987h37.626c1.782 0 3.49-.715 4.75-1.987a6.82 6.82 0 0 0 1.97-4.8V14.93c0-3.75-3.01-6.787-6.72-6.787zm4.032 33.928c0 2.25-1.805 4.073-4.032 4.073H14.78c-2.225 0-4.03-1.823-4.03-4.072V14.93c0-2.25 1.805-4.073 4.03-4.073h37.626c2.227 0 4.032 1.823 4.032 4.072v27.14z"/></g></svg>