<svg width="92" height="76" viewBox="0 0 92 76" xmlns="http://www.w3.org/2000/svg"><title>noun_164317_cc</title><g fill="#000" fill-rule="evenodd"><path d="M38.118 73.957c-19.838 0-35.978-16.14-35.978-35.98C2.14 18.14 18.28 2 38.118 2 51.662 2 63.463 9.535 69.6 20.623a9.665 9.665 0 0 1 2.622.732C66.042 8.73 53.094 0 38.118 0 17.178 0 .14 17.037.14 37.98c0 20.94 17.037 37.978 37.978 37.978a37.75 37.75 0 0 0 15.11-3.144 11.063 11.063 0 0 1-2.313-1.216 35.808 35.808 0 0 1-12.797 2.36z"/><path d="M40.887 64.08c-.91.098-1.834.148-2.77.148-14.474 0-26.25-11.775-26.25-26.25s11.776-26.25 26.25-26.25c7.75 0 14.726 3.38 19.536 8.74.35-.108.71-.2 1.087-.27-5-5.793-12.388-9.47-20.623-9.47-15.026 0-27.25 12.226-27.25 27.25 0 15.026 12.224 27.25 27.25 27.25 1.15 0 2.282-.08 3.395-.218a10.84 10.84 0 0 1-.625-.93z"/><path d="M62.785 76c-15.95 0-28.928-12.978-28.928-28.93 0-15.95 12.977-28.93 28.928-28.93 15.952 0 28.93 12.98 28.93 28.93 0 15.952-12.978 28.93-28.93 28.93zm0-55.858c-14.85 0-26.928 12.08-26.928 26.93C35.857 61.92 47.937 74 62.785 74s26.93-12.08 26.93-26.93-12.08-26.928-26.93-26.928z"/><path d="M62.785 67.776c-11.416 0-20.703-9.29-20.703-20.706s9.287-20.703 20.703-20.703c11.417 0 20.705 9.288 20.705 20.703 0 11.417-9.288 20.706-20.705 20.706zm0-40.41c-10.864 0-19.703 8.84-19.703 19.704 0 10.866 8.84 19.706 19.703 19.706 10.865 0 19.705-8.84 19.705-19.706 0-10.864-8.84-19.703-19.705-19.703z"/></g></svg>