<svg width="84" height="58" viewBox="0 0 84 58" xmlns="http://www.w3.org/2000/svg"><title>noun_302982_cc</title><g fill="#000" fill-rule="evenodd"><path d="M82 12.8H8.3V6.5c0-2.1 1.7-3.8 3.8-3.8 2.1 0 3.8 1.7 3.8 3.8 0 .7.6 1.3 1.3 1.3.7 0 1.3-.6 1.3-1.3 0-3.4-2.8-6.3-6.3-6.3S5.9 3 5.9 6.5v6.3H2c-.7 0-1.3.6-1.3 1.3v42.5c0 .7.6 1.3 1.3 1.3h80c.7 0 1.3-.6 1.3-1.3V14c0-.7-.6-1.2-1.3-1.2zM3.3 15.3h37.5v35H3.3v-35zm77.5 40H3.3v-2.5h77.5v2.5zm0-5H43.3v-10h37.5v10zm0-12.5H43.3v-10h37.5v10zm0-12.5H43.3v-10h37.5v10z"/><path d="M27 17.8H17c-.7 0-1.3.6-1.3 1.3 0 .7.6 1.3 1.3 1.3h10c.7 0 1.3-.6 1.3-1.3 0-.7-.6-1.3-1.3-1.3zM57 20.3h10c.7 0 1.3-.6 1.3-1.3 0-.7-.6-1.3-1.3-1.3H57c-.7 0-1.3.6-1.3 1.3 0 .7.6 1.3 1.3 1.3zM57 32.8h10c.7 0 1.3-.6 1.3-1.3 0-.7-.6-1.3-1.3-1.3H57c-.7 0-1.3.6-1.3 1.3 0 .7.6 1.3 1.3 1.3zM57 45.3h10c.7 0 1.3-.6 1.3-1.3 0-.7-.6-1.3-1.3-1.3H57c-.7 0-1.3.6-1.3 1.3 0 .7.6 1.3 1.3 1.3z"/></g></svg>