<svg width="93" height="45" viewBox="0 0 93 45" xmlns="http://www.w3.org/2000/svg"><title>noun_110093_cc</title><g fill="#000" fill-rule="evenodd"><path d="M92.33 35.1c0-1.125-.45-1.913-.897-1.913h-2.126C93.56 8.776 74.087 1.238 73.864 1.126l-.335-.113c-3.36-.337-6.604-.45-9.85-.45C52.49.563 43.54 2.476 36.377 5.4c0-.338 0-.563-.112-.9l-.224-.45c-.447-.9-1.566-1.35-2.46-.9L27.2 6.188c-.895.45-1.343 1.575-.895 2.474l.224.45c.222.45.558.788 1.006.9C13.883 18.9 9.52 31.276 8.4 35.1H6.61c-.672 0-1.12.45-1.343 1.012L.343 41.737s-.112.113-.112.225c0 .113-.11.113-.11.225 0 .113 0 .226-.113.338v.225c0 .112 0 .225.112.337 0 .113 0 .113.11.225 0 .113.113.113.113.226l.224.225c0 .112.112.112.112.112.11 0 .11.112.222.112.112.113.336.113.56.113h84.936c.67 0 1.23-.45 1.342-1.125.448-.9.784-2.475.784-5.4h3.02c.45 0 .896-.9.896-1.913l-.11-.562zm-6.156 6.188h-.56c.112-.113.336-.113.56-.113v.113zm-.895 0H4.482l2.91-3.263H85.725c-.112 1.575-.224 2.7-.447 3.263zM63.68 3.375c3.022 0 6.156.112 9.4.45 2.015.787 18.465 8.212 12.982 31.275H11.31c2.014-6.75 12.533-31.725 52.37-31.725z"/><path d="M34.362 18.45h.224c.224 0 21.15-3.938 31.893-3.938 1.565 0 2.908.113 3.803.226.56.112 1.007-.113 1.343-.563.112-.113 2.462-3.263-2.238-7.538-.224-.224-.56-.337-.895-.337h-1.455c-3.693 0-13.428.225-23.5 2.7h-.112c-.224.113-6.043 2.137-10.183 7.2-.336.45-.448 1.125-.112 1.575.225.45.672.675 1.232.675zm9.848-6.75c9.847-2.362 19.135-2.587 22.828-2.587h.895c1.12 1.125 1.567 2.024 1.68 2.7-.896-.113-1.903-.113-3.023-.113-7.945 0-20.926 2.025-27.864 3.15 2.574-2.025 5.148-3.037 5.484-3.15z"/></g></svg>